<svg width="36" height="6" viewBox="0 0 36 6" fill="none" xmlns="http://www.w3.org/2000/svg">
<path opacity="0.49814" d="M5.27512 3.34519C5.27512 4.09983 5.0275 4.72477 4.53227 5.22C4.04489 5.71524 3.42389 5.96285 2.66924 5.96285C1.9146 5.96285 1.28966 5.71524 0.794425 5.22C0.307052 4.72477 0.0633649 4.09983 0.0633649 3.34519C0.0633649 2.59054 0.307052 1.96953 0.794425 1.48216C1.28966 0.994788 1.9146 0.751101 2.66924 0.751101C3.42389 0.751101 4.04489 0.994788 4.53227 1.48216C5.0275 1.96953 5.27512 2.59054 5.27512 3.34519ZM15.4015 3.34519C15.4015 4.09983 15.1539 4.72477 14.6586 5.22C14.1713 5.71524 13.5503 5.96285 12.7956 5.96285C12.041 5.96285 11.416 5.71524 10.9208 5.22C10.4334 4.72477 10.1897 4.09983 10.1897 3.34519C10.1897 2.59054 10.4334 1.96953 10.9208 1.48216C11.416 0.994788 12.041 0.751101 12.7956 0.751101C13.5503 0.751101 14.1713 0.994788 14.6586 1.48216C15.1539 1.96953 15.4015 2.59054 15.4015 3.34519ZM25.5279 3.34519C25.5279 4.09983 25.2802 4.72477 24.785 5.22C24.2976 5.71524 23.6766 5.96285 22.922 5.96285C22.1673 5.96285 21.5424 5.71524 21.0472 5.22C20.5598 4.72477 20.3161 4.09983 20.3161 3.34519C20.3161 2.59054 20.5598 1.96953 21.0472 1.48216C21.5424 0.994788 22.1673 0.751101 22.922 0.751101C23.6766 0.751101 24.2976 0.994788 24.785 1.48216C25.2802 1.96953 25.5279 2.59054 25.5279 3.34519ZM35.6542 3.34519C35.6542 4.09983 35.4066 4.72477 34.9114 5.22C34.424 5.71524 33.803 5.96285 33.0483 5.96285C32.2937 5.96285 31.6688 5.71524 31.1735 5.22C30.6862 4.72477 30.4425 4.09983 30.4425 3.34519C30.4425 2.59054 30.6862 1.96953 31.1735 1.48216C31.6688 0.994788 32.2937 0.751101 33.0483 0.751101C33.803 0.751101 34.424 0.994788 34.9114 1.48216C35.4066 1.96953 35.6542 2.59054 35.6542 3.34519Z" fill="black"/>
</svg>
