<?xml version="1.0" encoding="UTF-8"?>
<svg width="111px" height="40px" viewBox="0 0 111 40" version="1.1" xmlns="http://www.w3.org/2000/svg" xmlns:xlink="http://www.w3.org/1999/xlink">
    <g id="Figurehead" stroke="none" stroke-width="1" fill="none" fill-rule="evenodd">
        <g id="verified-logos" transform="translate(-76.000000, -160.000000)">
            <g id="mastercard-securedcode" transform="translate(64.000000, 141.000000)">
                <rect id="Rectangle-28-Copy" fill-opacity="0" fill="#FFFFFF" x="0" y="0" width="134" height="78"></rect>
                <g id="mastercard-securecode" transform="translate(12.000000, 19.000000)">
                    <path d="M104.849954,15.5 C104.849954,14.3 105.73925,13.3 106.924977,13.3 C108.110704,13.3 109,14.3 109,15.5 C109,16.7 108.110704,17.7 106.924977,17.7 C105.83806,17.7 104.849954,16.8 104.849954,15.5 Z M106.924977,17.2 C107.814273,17.2 108.505947,16.4 108.505947,15.5 C108.505947,14.6 107.814273,13.8 106.924977,13.8 C106.035682,13.8 105.344007,14.6 105.344007,15.5 C105.344007,16.5 106.134492,17.2 106.924977,17.2 Z M106.727356,16.5 L106.332113,16.5 L106.332113,14.5 L107.122598,14.5 C107.32022,14.5 107.41903,14.5 107.616651,14.6 C107.715462,14.7 107.814273,14.9 107.814273,15.1 C107.814273,15.3 107.715462,15.5 107.517841,15.6 L107.814273,16.5 L107.32022,16.5 L107.023788,15.7 L106.727356,15.7 L106.727356,16.5 Z M106.727356,15.4 L107.221409,15.4 C107.32022,15.4 107.32022,15.3 107.32022,15.2 C107.32022,15.1 107.32022,15 107.221409,15 L106.727356,15 L106.727356,15.4 Z M75.1079597,0.8 L74.5150961,4.6 C73.2305581,3.9 72.3412626,3.7 71.3531565,3.7 C68.7840805,3.7 66.9066789,6.4 66.9066789,10.2 C66.9066789,12.8 68.0924062,14.4 70.1674291,14.4 C71.0567246,14.4 71.9460201,14.1 73.1317475,13.5 L72.5388838,17.5 C71.2543458,17.9 70.4638609,18 69.4757548,18 C65.7209515,18 63.3494968,15.1 63.3494968,10.5 C63.3494968,4.3 66.610247,0 71.1555352,0 C71.7483989,0 72.242452,0.1 72.736505,0.2 L74.2186642,0.6 C74.7127173,0.6 74.8115279,0.7 75.1079597,0.8 L75.1079597,0.8 Z M63.547118,3.4 L63.1518756,3.4 C61.9661482,3.4 61.3732845,4 60.2863678,5.7 L60.5827996,3.6 L57.42086,3.6 L55.2470265,17.7 L58.705398,17.7 C59.989936,9.1 60.2863678,7.6 61.9661482,7.6 L62.2625801,7.6 C62.5590119,5.9 62.9542543,4.7 63.547118,3.5 L63.547118,3.4 L63.547118,3.4 Z M42.6980787,17.4 C41.7099726,17.7 41.0182983,17.9 40.2278134,17.9 C38.4492223,17.9 37.4611162,16.8 37.4611162,14.8 C37.4611162,14.4 37.4611162,14 37.5599268,13.5 L37.757548,12.1 L37.9551693,11 L39.4373285,1.4 L42.8956999,1.4 L42.5004575,3.5 L44.2790485,3.5 L43.7849954,6.9 L42.0064044,6.9 L41.1171089,12.8 C41.1171089,13.1 41.0182983,13.3 41.0182983,13.4 C41.0182983,14.1 41.4135407,14.4 42.2040256,14.4 C42.5992681,14.4 42.8956999,14.4 43.0933211,14.3 L42.6980787,17.4 L42.6980787,17.4 Z M28.9634035,7.9 C28.9634035,9.7 29.7538884,10.9 31.63129,11.8 C33.0146386,12.5 33.2122598,12.7 33.2122598,13.4 C33.2122598,14.3 32.6193962,14.7 31.2360476,14.7 C30.2479414,14.7 29.2598353,14.5 28.074108,14.1 L27.5800549,17.3 L27.7776761,17.3 L28.3705398,17.4 C28.568161,17.4 28.8645929,17.5 29.2598353,17.5 C30.0503202,17.6 30.7419945,17.6 31.137237,17.6 C34.7932296,17.6 36.4730101,16.1 36.4730101,12.9 C36.4730101,11 35.7813358,9.8 34.0027447,9 C32.5205855,8.3 32.4217749,8.1 32.4217749,7.5 C32.4217749,6.7 33.0146386,6.3 34.1015554,6.3 C34.7932296,6.3 35.6825252,6.4 36.5718207,6.5 L37.0658737,3.3 C36.1765782,3.1 34.7932296,3 34.0027447,3 C30.3467521,3.2 28.9634035,5.3 28.9634035,7.9 L28.9634035,7.9 Z M102.873742,17.6 L99.6129918,17.6 L99.810613,16.2 C98.8225069,17.3 97.8344007,17.8 96.5498628,17.8 C93.9807868,17.8 92.3010064,15.5 92.3010064,12 C92.3010064,7.3 94.8700823,3.4 97.9332113,3.4 C99.3165599,3.4 100.304666,4 101.292772,5.3 L102.083257,0.4 L105.541629,0.4 L102.873742,17.6 L102.873742,17.6 Z M97.7355901,14.3 C99.3165599,14.3 100.502287,12.3 100.502287,9.6 C100.502287,7.8 99.810613,6.8 98.6248856,6.8 C97.0439158,6.8 95.9569991,8.8 95.9569991,11.5 C95.9569991,13.3 96.5498628,14.3 97.7355901,14.3 L97.7355901,14.3 Z M53.7648673,17.3 C52.57914,17.7 51.3934126,17.9 50.2076853,17.9 C46.3540714,17.9 44.2790485,15.7 44.2790485,11.6 C44.2790485,6.8 46.8481244,3.2 50.4053065,3.2 C53.2708143,3.2 55.1482159,5.2 55.1482159,8.3 C55.1482159,9.3 55.0494053,10.3 54.7529735,11.8 L47.8362306,11.8 L47.8362306,12.2 C47.8362306,13.8 48.8243367,14.7 50.8993596,14.7 C52.1838975,14.7 53.2708143,14.4 54.5553522,13.8 L53.7648673,17.3 L53.7648673,17.3 Z M51.7886551,8.9 L51.7886551,8.2 C51.7886551,7 51.1957914,6.4 50.1088747,6.4 C49.0219579,6.4 48.231473,7.3 47.9350412,8.9 L51.7886551,8.9 Z M15.031107,17.6 L11.473925,17.6 L13.4501372,4.3 L9.00365965,17.6 L6.63220494,17.6 L6.3357731,4.3 L4.26075023,17.6 L1,17.6 L3.76669716,0.3 L8.70722781,0.3 L8.90484904,11 L12.2644099,0.3 L17.6989936,0.3 L15.031107,17.6 L15.031107,17.6 Z M23.9240622,11.3 C23.5288198,11.3 23.4300091,11.2 23.1335773,11.2 C21.1573651,11.2 20.1692589,11.9 20.1692589,13.3 C20.1692589,14.2 20.663312,14.7 21.4537969,14.7 C22.8371455,14.8 23.9240622,13.4 23.9240622,11.3 Z M26.4931382,17.6 L23.6276304,17.6 L23.726441,16.1 C22.8371455,17.3 21.6514181,17.8 20.0704483,17.8 C18.1930467,17.8 16.9085087,16.2 16.9085087,14 C16.9085087,10.6 19.1811528,8.6 23.0347667,8.6 C23.4300091,8.6 23.9240622,8.6 24.4181153,8.7 C24.5169259,8.2 24.5169259,8 24.5169259,7.8 C24.5169259,6.9 23.9240622,6.5 22.2442818,6.5 C21.2561757,6.5 20.1692589,6.7 19.378774,6.9 L18.884721,7 L18.5882891,7.1 L19.0823422,3.9 C20.8609332,3.4 21.94785,3.1 23.2323879,3.1 C26.1967063,3.1 27.7776761,4.5 27.7776761,7.2 C27.7776761,7.9 27.6788655,8.4 27.4812443,10 L26.78957,15 L26.6907594,15.9 L26.5919488,16.6 L26.4931382,17.1 L26.4931382,17.6 L26.4931382,17.6 Z M81.1354071,11.3 C80.7401647,11.3 80.6413541,11.2 80.3449222,11.2 C78.36871,11.2 77.3806038,11.9 77.3806038,13.3 C77.3806038,14.2 77.8746569,14.7 78.6651418,14.7 C80.0484904,14.8 81.0365965,13.4 81.1354071,11.3 Z M83.7044831,17.6 L80.8389753,17.6 L80.9377859,16.1 C80.0484904,17.3 78.862763,17.8 77.2817932,17.8 C75.4043916,17.8 74.1198536,16.2 74.1198536,14 C74.1198536,10.6 76.3924977,8.6 80.2461116,8.6 C80.6413541,8.6 81.1354071,8.6 81.6294602,8.7 C81.7282708,8.2 81.7282708,8 81.7282708,7.8 C81.7282708,6.9 81.1354071,6.5 79.4556267,6.5 C78.4675206,6.5 77.3806038,6.7 76.5901189,6.9 L76.0960659,7 L75.799634,7.1 L76.2936871,3.9 C78.0722781,3.4 79.1591949,3.1 80.4437328,3.1 C83.4080512,3.1 84.989021,4.5 84.989021,7.2 C84.989021,7.9 84.8902104,8.4 84.6925892,10 L84.0009149,15 L83.9021043,15.9 L83.8032937,16.6 L83.7044831,17.1 L83.7044831,17.6 L83.7044831,17.6 Z M93.3879231,3.4 L92.9926807,3.4 C91.8069533,3.4 91.2140897,4 90.1271729,5.7 L90.4236048,3.6 L87.2616651,3.6 L85.0878317,17.7 L88.5462031,17.7 C89.8307411,9.1 90.1271729,7.6 91.8069533,7.6 L92.0045746,7.6 C92.3010064,5.9 92.6962489,4.7 93.2891125,3.5 L93.3879231,3.4 L93.3879231,3.4 Z" id="Shape" fill="#B7B7B7"></path>
                    <path d="M78.6621984,31.2228261 C78.6621984,34.5271739 77.6702413,36.4891304 76.1823056,36.4891304 C75.0911528,36.4891304 74.3967828,35.25 74.3967828,33.2880435 C74.3967828,31.0163043 75.3887399,28.3315217 76.9758713,28.3315217 C78.2654155,28.3315217 78.6621984,29.7771739 78.6621984,31.2228261 Z M82.1340483,31.326087 C82.1340483,27.7119565 80.3485255,24.8206522 77.1742627,24.8206522 C73.4048257,24.8206522 71.0241287,28.3315217 71.0241287,33.3913043 C71.0241287,37.0054348 72.5120643,40 75.9839142,40 C79.4557641,40 82.1340483,37.3152174 82.1340483,31.326087 Z M72.0160858,22.2391304 L71.5201072,26.0597826 C70.3297587,25.3369565 69.536193,25.1304348 68.6434316,25.1304348 C66.1635389,25.1304348 64.4772118,27.9184783 64.4772118,31.8423913 C64.4772118,34.5271739 65.6675603,36.1793478 67.5522788,36.1793478 C68.3458445,36.1793478 69.2386059,35.8695652 70.3297587,35.25 L69.7345845,39.2771739 C68.5442359,39.6902174 67.7506702,39.7934783 66.8579088,39.7934783 C63.386059,39.7934783 61.1045576,36.798913 61.1045576,32.048913 C61.1045576,25.6467391 64.1796247,21.2065217 68.4450402,21.2065217 C69.0402145,21.2065217 69.536193,21.3097826 69.9329759,21.4130435 L71.2225201,21.826087 C71.6193029,22.0326087 71.7184987,22.0326087 72.0160858,22.2391304 L72.0160858,22.2391304 Z M50.3914209,24.923913 L50.0938338,24.923913 C49.002681,24.923913 48.4075067,25.5434783 47.4155496,27.298913 L47.7131367,25.1304348 L44.7372654,25.1304348 L42.7533512,39.6902174 L46.0268097,39.6902174 C47.2171582,30.8097826 47.5147453,29.2608696 49.1018767,29.2608696 L49.3002681,29.2608696 C49.5978552,27.5054348 49.9946381,26.1630435 50.4906166,25.0271739 L50.3914209,24.923913 L50.3914209,24.923913 Z M93.0455764,39.3804348 L89.9705094,39.3804348 L90.1689008,37.9347826 C89.2761394,39.0706522 88.383378,39.5869565 87.1930295,39.5869565 C84.8123324,39.5869565 83.2252011,37.2119565 83.2252011,33.5978261 C83.2252011,28.7445652 85.7050938,24.7173913 88.5817694,24.7173913 C89.8713137,24.7173913 90.8632708,25.3369565 91.7560322,26.6793478 L92.4504021,21.6195652 L95.6246649,21.6195652 L93.0455764,39.3804348 L93.0455764,39.3804348 Z M88.1849866,35.9728261 C89.772118,35.9728261 90.7640751,33.9076087 90.7640751,31.1195652 C90.7640751,29.2608696 90.1689008,28.2282609 89.077748,28.2282609 C87.5898123,28.2282609 86.4986595,30.2934783 86.4986595,33.0815217 C86.5978552,35.0434783 87.0938338,35.9728261 88.1849866,35.9728261 Z M19.7399464,39.2771739 C18.6487936,39.6902174 17.5576408,39.8967391 16.3672922,39.8967391 C12.6970509,39.8967391 10.8123324,37.625 10.8123324,33.3913043 C10.8123324,28.4347826 13.1930295,24.7173913 16.5656836,24.7173913 C19.2439678,24.7173913 20.9302949,26.7826087 20.9302949,29.9836957 C20.9302949,31.0163043 20.8310992,32.048913 20.5335121,33.5978261 L13.9865952,33.5978261 L13.9865952,34.0108696 C13.9865952,35.6630435 14.9785523,36.5923913 16.8632708,36.5923913 C18.0536193,36.5923913 19.0455764,36.2826087 20.2359249,35.6630435 L19.7399464,39.2771739 L19.7399464,39.2771739 Z M17.9544236,30.7065217 L17.9544236,29.9836957 C17.9544236,28.8478261 17.3592493,28.125 16.3672922,28.125 C15.2761394,28.125 14.5817694,29.0543478 14.2841823,30.7065217 L17.9544236,30.7065217 L17.9544236,30.7065217 Z M58.6246649,39.2771739 C57.5335121,39.6902174 56.4423592,39.8967391 55.2520107,39.8967391 C51.5817694,39.8967391 49.6970509,37.625 49.6970509,33.3913043 C49.6970509,28.4347826 52.077748,24.7173913 55.4504021,24.7173913 C58.1286863,24.7173913 59.8150134,26.7826087 59.8150134,29.9836957 C59.8150134,31.0163043 59.7158177,32.048913 59.4182306,33.5978261 L52.9705094,33.5978261 L52.9705094,34.0108696 C52.9705094,35.6630435 53.9624665,36.5923913 55.847185,36.5923913 C57.0375335,36.5923913 58.0294906,36.2826087 59.2198391,35.6630435 L58.6246649,39.2771739 L58.6246649,39.2771739 Z M56.8391421,30.7065217 L56.8391421,29.9836957 C56.8391421,28.8478261 56.2439678,28.125 55.2520107,28.125 C54.1608579,28.125 53.4664879,29.0543478 53.1689008,30.7065217 L56.8391421,30.7065217 Z M104.155496,39.2771739 C103.064343,39.6902174 101.97319,39.8967391 100.782842,39.8967391 C97.1126005,39.8967391 95.227882,37.625 95.227882,33.3913043 C95.227882,28.4347826 97.6085791,24.7173913 100.981233,24.7173913 C103.659517,24.7173913 105.345845,26.7826087 105.345845,29.9836957 C105.345845,31.0163043 105.246649,32.048913 104.949062,33.5978261 L98.4021448,33.5978261 L98.4021448,34.0108696 C98.4021448,35.6630435 99.3941019,36.5923913 101.27882,36.5923913 C102.469169,36.5923913 103.461126,36.2826087 104.651475,35.6630435 L104.155496,39.2771739 L104.155496,39.2771739 Z M102.369973,30.7065217 L102.369973,29.9836957 C102.369973,28.8478261 101.774799,28.125 100.782842,28.125 C99.691689,28.125 98.997319,29.0543478 98.6997319,30.7065217 L102.369973,30.7065217 L102.369973,30.7065217 Z M10.1179625,25.5434783 C9.5227882,25.1304348 8.63002681,24.7173913 7.43967828,24.7173913 C6.15013405,24.7173913 5.05898123,25.0271739 5.05898123,26.4728261 C5.05898123,29.0543478 9.91957105,28.125 9.91957105,33.5978261 C9.91957105,38.6576087 6.74530831,39.8967391 3.86863271,39.8967391 C2.57908847,39.8967391 1.09115282,39.4836957 0,38.9673913 L0.793565684,35.25 C1.48793566,35.8695652 2.77747989,36.2826087 3.86863271,36.2826087 C4.86058981,36.2826087 6.54691689,35.9728261 6.54691689,34.1141304 C6.54691689,31.2228261 1.68632708,32.2554348 1.68632708,27.0923913 C1.68632708,22.4456522 4.46380697,21 7.24128686,21 C8.72922252,21 10.2171582,21.2065217 11.0107239,21.826087 L10.1179625,25.5434783 L10.1179625,25.5434783 Z M29.3619303,39.2771739 C28.6675603,39.5869565 27.7747989,39.7934783 26.4852547,39.7934783 C23.6085791,39.7934783 21.8230563,36.798913 21.8230563,33.1847826 C21.8230563,28.4347826 24.4021448,24.7173913 28.1715818,24.7173913 C28.9651475,24.7173913 30.2546917,25.1304348 31.2466488,25.6467391 L30.5522788,29.1576087 C29.8579088,28.6413043 29.1635389,28.3315217 28.3699732,28.3315217 C26.5844504,28.3315217 25.3941019,29.9836957 25.3941019,32.9782609 C25.3941019,34.7336957 26.2868633,36.076087 27.7747989,36.076087 C28.6675603,36.076087 29.2627346,35.8695652 29.9571046,35.4565217 L29.3619303,39.2771739 L29.3619303,39.2771739 Z M41.5630027,35.6630435 C41.3646113,36.9021739 41.2654155,38.1413043 41.1662198,39.4836957 L37.9919571,39.4836957 L38.2895442,37.1086957 C37.2975871,38.6576087 36.30563,39.7934783 34.5201072,39.7934783 C32.536193,39.7934783 31.4450402,37.625 31.4450402,34.8369565 C31.4450402,33.9076087 31.5442359,33.2880435 31.7426273,31.8423913 L32.6353887,25.1304348 L36.1072386,25.1304348 L35.2144772,31.8423913 C35.1152815,32.5652174 35.0160858,33.2880435 35.0160858,34.0108696 C35.0160858,34.8369565 35.4128686,35.7663043 36.30563,35.6630435 C37.69437,35.6630435 38.5871314,33.8043478 38.7855228,31.7391304 L39.7774799,25.1304348 L43.150134,25.1304348 L41.5630027,35.6630435 Z M107.428954,39.2771739 L106.932976,39.2771739 L106.932976,36.9021739 L106.13941,36.9021739 L106.13941,36.3858696 L108.22252,36.3858696 L108.22252,36.9021739 L107.428954,36.9021739 L107.428954,39.2771739 Z M111,39.2771739 L110.504021,39.2771739 L110.504021,36.798913 L110.008043,39.2771739 L109.512064,39.2771739 L109.016086,36.798913 L109.016086,39.2771739 L108.520107,39.2771739 L108.520107,36.3858696 L109.313673,36.3858696 L109.710456,38.6576087 L110.206434,36.3858696 L111,36.3858696 L111,39.2771739 Z" id="Shape" fill="#B7B7B7"></path>
                </g>
            </g>
        </g>
    </g>
</svg>