<?xml version="1.0" encoding="UTF-8"?>
<svg width="105px" height="46px" viewBox="0 0 105 46" version="1.1" xmlns="http://www.w3.org/2000/svg" xmlns:xlink="http://www.w3.org/1999/xlink">
    <g id="Figurehead" stroke="none" stroke-width="1" fill="none" fill-rule="evenodd">
        <g id="verified-logos" transform="translate(-79.000000, -59.000000)">
            <g id="verified-by-visa" transform="translate(64.000000, 43.000000)">
                <rect id="Rectangle-28" fill-opacity="0" fill="#FFFFFF" x="0" y="0" width="134" height="78"></rect>
                <g transform="translate(15.000000, 16.000000)" id="Shape" fill-rule="nonzero">
                    <path d="M43.3178576,24.3918877 L38.0389315,38.9177462 L37.4758461,35.9664302 C36.1612411,32.3472651 33.3147776,28.5505346 30,27.011824 L34.8294553,45.6640962 L40.5384545,45.6612688 L49.0285195,24.3918877 L43.3178576,24.3918877 L43.3178576,24.3918877 Z M47.8424931,45.6850195 L51.2176805,24.3715299 L56.6107755,24.3715299 L53.2339254,45.6850195 L47.8424931,45.6850195 L47.8424931,45.6850195 Z M72.8000363,24.8968744 C71.7342752,24.4670985 70.0527779,24 67.9667015,24 C62.6312452,24 58.8830691,26.8936356 58.8503702,31.0324902 C58.8160087,34.0980362 61.5305683,35.8080917 63.5711988,36.8265474 C65.6772271,37.8687539 66.3805297,38.5377339 66.3738791,39.4702344 C66.353373,40.8981082 64.6890565,41.5489924 63.1422341,41.5489924 C60.9863263,41.5489924 59.8374324,41.2277915 58.0700313,40.4349681 L57.3694998,40.0951059 L56.614655,44.8650524 C57.8766093,45.4588217 60.2059874,45.9734218 62.6273656,46 C68.2892563,46 71.9731431,43.1391631 72.0169264,38.7215196 C72.0396493,36.2898931 70.5986826,34.4492083 67.4839776,32.9297244 C65.6040703,31.9418055 64.441321,31.2869628 64.4585018,30.2854719 C64.4601644,29.4010385 65.4339254,28.4532696 67.5488212,28.4532696 C69.3151138,28.4232984 70.5853814,28.8366749 71.5851906,29.2726712 L72.0662518,29.5169648 L72.8000363,24.8968744 L72.8000363,24.8968744 Z M86.6327625,24.3935842 L82.4661518,24.3935842 C81.1742697,24.3935842 80.206051,24.7690726 79.6357607,26.1624512 L71.629528,45.6918055 L77.2941898,45.6918055 C77.2941898,45.6918055 78.220288,43.0633868 78.4297824,42.4871479 C79.0477354,42.4871479 84.5494571,42.5001542 85.334784,42.5001542 C85.5016036,43.2432141 85.9915323,45.6918055 85.9915323,45.6918055 L91,45.6918055 L86.6327625,24.3935842 L86.6327625,24.3935842 Z M79.9815927,38.1277504 C80.4294008,36.9045856 82.1302957,32.1702653 82.1302957,32.1702653 C82.0970427,32.2279457 82.5725617,30.9374871 82.8474538,30.1395743 L83.206587,31.9768661 C83.206587,31.9768661 84.2429746,37.0629241 84.4591196,38.1277504 L79.9815927,38.1277504 Z" fill="#B7B7B7"></path>
                    <path d="M31.6936502,25 L23.0506629,25 L23,25.3482949 C29.7199983,27.0232229 34.1541068,31.1362151 36,36 L34.1216165,26.7039079 C33.7989156,25.4250378 32.8583471,25.0450798 31.6936502,25" fill="#B7B7B7"></path>
                    <path d="M7.3839779,18.548883 L3.95524862,18.548883 L0,1.25363608 L3.78950276,0.638877384 L6.49558011,14.174288 L13.3883978,0.817891685 L17.0281768,0.817891685 L7.3839779,18.548883 L7.3839779,18.548883 Z M25.2138122,12.8949253 L17.0375691,12.8949253 C16.8143646,15.299827 17.9662983,16.3492582 19.918232,16.3492582 C21.5535912,16.3492582 22.9922652,15.7602261 24.5403315,14.8137014 L24.5281768,17.2186031 C23.0099448,18.1399371 21.2552486,18.7284333 19.1977901,18.7284333 C15.6375691,18.7284333 13.2861878,16.758204 13.9928177,12.3058932 C14.6298343,8.28932687 17.4944751,5.85923454 20.8176796,5.85923454 C24.641989,5.85923454 25.9138122,8.64789144 25.358011,12.1531415 C25.3176796,12.4087997 25.241989,12.715911 25.2138122,12.8949253 L25.2138122,12.8949253 Z M20.4022099,7.98275148 C19.1359116,7.98275148 17.9530387,8.95446683 17.3950276,10.9761493 L22.4585635,10.9761493 C22.5519337,9.05683728 21.9314917,7.98275148 20.4022099,7.98275148 Z M30.5430939,11.3856311 L29.4187845,18.4727751 L26.2541436,18.4727751 L28.2143646,6.11435671 L30.9049724,6.11435671 L30.9066298,8.59643823 C31.9779006,7.16378785 33.4348066,5.96160499 35.4287293,5.85923454 L35.4469613,8.90354959 C33.4486188,9.03164665 31.6508287,10.0548152 30.5430939,11.3856311 L30.5430939,11.3856311 Z M35.4055249,18.4727751 L37.3662983,6.11435671 L40.5309392,6.11435671 L38.5707182,18.4727751 L35.4055249,18.4727751 Z M39.3038674,4.04229298 C38.2491713,4.04229298 37.5187845,3.32569981 37.6812155,2.30253124 C37.8475138,1.25363608 38.8093923,0.511316296 39.8640884,0.511316296 C40.8928177,0.511316296 41.6187845,1.25363608 41.4524862,2.30253124 C41.2900552,3.32569981 40.3325967,4.04229298 39.3038674,4.04229298 Z M49.2961326,2.73720369 C48.2143646,2.73720369 47.561326,3.19760275 47.3867403,4.2984871 L47.0983425,6.11435671 L49.5248619,6.11435671 L49.5226519,8.62162886 L46.7005525,8.62162886 L45.1375691,18.4727751 L41.9994475,18.4727751 L43.5624309,8.62162886 L41.7160221,8.62162886 L42.1138122,6.11435671 L43.9596685,6.11435671 L44.2966851,3.99083977 C44.7309392,1.25363608 46.6867403,0.229931542 49.2977901,0.229931542 C49.8519337,0.229931542 50.2657459,0.281384754 50.5745856,0.332301995 L50.5983425,2.83957415 C50.1678612,2.77117959 49.7323489,2.73694272 49.2961326,2.73720369 L49.2961326,2.73720369 Z M49.3303867,18.4727751 L51.2911602,6.11435671 L54.4558011,6.11435671 L52.4955801,18.4727751 L49.3303867,18.4727751 L49.3303867,18.4727751 Z M53.2287293,4.04229298 C52.1740331,4.04229298 51.4436464,3.32569981 51.6060773,2.30253124 C51.7723757,1.25363608 52.7342541,0.511316296 53.7889503,0.511316296 C54.8176796,0.511316296 55.5441989,1.25363608 55.3779006,2.30253124 C55.2154696,3.32569981 54.2574586,4.04229298 53.2287293,4.04229298 Z M66.7265193,12.8949253 L58.5502762,12.8949253 C58.3270718,15.299827 59.4790055,16.3492582 61.4309392,16.3492582 C63.0662983,16.3492582 64.5044199,15.7602261 66.0530387,14.8137014 L66.0403315,17.2186031 C64.5226519,18.1399371 62.7674033,18.7284333 60.7099448,18.7284333 C57.1497238,18.7284333 54.798895,16.758204 55.5049724,12.3058932 C56.1425414,8.28932687 59.0071823,5.85923454 62.3303867,5.85923454 C66.1546961,5.85923454 67.4265193,8.64789144 66.8707182,12.1531415 C66.8298343,12.4087997 66.7546961,12.715911 66.7265193,12.8949253 Z M61.9143646,7.98275148 C60.6480663,7.98275148 59.4651934,8.95446683 58.9077348,10.9761493 L63.9712707,10.9761493 C64.0646409,9.05683728 63.4436464,7.98275148 61.9143646,7.98275148 L61.9143646,7.98275148 Z M76.101105,18.4727751 L76.1088398,16.758204 C75.0453039,17.8076351 73.660221,18.7284333 71.8928177,18.7284333 C69.2287293,18.7284333 67.3977901,16.8096572 68.059116,12.6387312 C68.7895028,8.03366872 71.7254144,5.98679562 74.6790055,5.98679562 C75.8928177,5.98679562 76.8364641,6.19153653 77.560221,6.44719468 L78.5060773,0.48558969 L81.7480663,0 L78.8176796,18.4727751 L76.101105,18.4727751 L76.101105,18.4727751 Z M77.1585635,8.98019344 C76.4243094,8.62162886 75.8458564,8.44261456 74.7646409,8.44261456 C73.1027624,8.44261456 71.6828729,9.74770385 71.2524862,12.4602529 C70.8712707,14.8646186 71.7475138,15.9906936 73.1453039,15.9906936 C74.3055249,15.9906936 75.3077348,15.3260896 76.3138122,14.3023851 L77.1585635,8.98019344 L77.1585635,8.98019344 Z M88.5127072,18.5890808 C87.0143646,18.5890808 85.7933702,18.3559334 84.6563536,17.9689624 L86.7381215,4.84839331 L89.1933702,4.47964528 L88.2928177,10.1582576 C89.0104972,9.53813921 90.0077348,8.91802081 91.2265193,8.91802081 C93.2640884,8.91802081 94.6287293,10.391405 94.1303867,13.5305869 C93.5834254,16.980096 91.3900552,18.5890808 88.5127072,18.5890808 L88.5127072,18.5890808 Z M90.2812155,10.9718615 C89.481768,10.9718615 88.679558,11.4955052 87.9696133,12.1938753 L87.2961326,16.4376934 C87.7685083,16.6118839 88.0955801,16.6895997 88.7745856,16.6895997 C90.2928177,16.6895997 91.3535912,15.79828 91.6917127,13.6661875 C91.9779006,11.8637172 91.360221,10.9718615 90.2812155,10.9718615 L90.2812155,10.9718615 Z M99.778453,18.9765878 C98.5535912,21.2828709 97.3414365,22 95.4834254,22 C95.0635359,22 94.8303867,21.9608741 94.6198895,21.9029893 L94.6044199,19.9842132 C94.9622069,20.0771187 95.3312873,20.122731 95.7016575,20.1198139 C96.401105,20.1198139 97.0093923,19.8100227 97.4171271,19.1314834 L97.7348066,18.511365 L95.7022099,9.28623286 L98.2491713,8.97644164 L99.4287293,15.6428484 L102.622652,9.11204229 L105,9.11204229 L99.778453,18.9765878 L99.778453,18.9765878 Z" fill="#B7B7B7"></path>
                </g>
            </g>
        </g>
    </g>
</svg>